<?xml version="1.0" standalone="no"?>
<!DOCTYPE svg PUBLIC "-//W3C//DTD SVG 20010904//EN"
 "http://www.w3.org/TR/2001/REC-SVG-20010904/DTD/svg10.dtd">
<svg version="1.0" xmlns="http://www.w3.org/2000/svg"
 width="1037.000000pt" height="1002.000000pt" viewBox="0 0 1037.000000 1002.000000"
 preserveAspectRatio="xMidYMid meet">

<g transform="translate(0.000000,1002.000000) scale(0.100000,-0.100000)"
fill="#000000" stroke="none">
<path d="M2448 9937 c-37 -50 -38 -52 -32 -121 l5 -71 -18 30 -18 30 -3 -51
c-2 -32 6 -84 20 -135 l23 -84 -5 -1460 c-3 -803 -2 -1471 2 -1485 3 -14 7
638 7 1449 1 811 3 1476 5 1479 3 2 11 -9 20 -25 l15 -28 1 52 c0 29 -9 87
-21 130 -15 53 -20 96 -17 139 4 61 16 93 25 66 3 -6 8 -10 13 -7 5 3 13 -9
19 -27 19 -58 51 -268 51 -331 -1 -54 -2 -60 -14 -44 -10 13 -15 14 -18 5 -8
-22 0 -95 17 -150 14 -47 15 -212 15 -1490 0 -968 3 -1438 10 -1438 7 0 9 461
8 1415 -2 1134 -1 1412 10 1398 6 -9 12 -22 13 -27 0 -6 4 -1 9 11 9 23 0 100
-20 163 -21 67 -7 245 15 188 4 -10 11 -16 15 -13 15 9 45 -129 61 -286 13
-123 10 -147 -14 -104 l-16 30 -1 -53 c0 -29 9 -85 20 -125 20 -70 20 -103 23
-1497 l2 -1425 5 1410 c5 1340 6 1408 22 1375 16 -33 17 -33 19 -10 3 55 -3
98 -23 160 -21 71 -25 141 -8 186 l11 28 20 -20 c26 -27 58 -176 67 -317 6
-88 5 -105 -5 -90 -7 9 -13 22 -13 27 0 6 -4 5 -9 -2 -10 -17 -3 -92 15 -156
12 -42 14 -285 14 -1493 0 -794 3 -1443 8 -1443 4 0 7 637 7 1415 0 1302 1
1413 16 1394 34 -46 36 26 3 137 -18 62 -21 191 -4 208 6 6 17 1 30 -14 11
-13 20 -24 20 -25 0 0 9 -49 19 -106 27 -146 38 -284 22 -274 -7 4 -16 17 -21
29 -19 46 -10 -97 10 -163 20 -66 21 -82 17 -1711 -2 -905 -7 -1669 -11 -1699
-5 -42 -2 -68 15 -118 11 -34 23 -63 26 -63 3 0 2 26 -3 58 -7 53 -18 3268
-12 3377 l3 50 17 -30 17 -30 2 25 c2 48 -3 86 -23 160 -15 55 -19 90 -14 133
7 68 11 78 31 71 29 -11 62 -162 74 -333 6 -96 5 -101 -10 -82 -9 11 -19 18
-21 16 -9 -9 0 -90 16 -152 15 -56 16 -211 16 -1494 0 -788 2 -1430 5 -1427 3
2 5 639 5 1414 1 1235 3 1407 15 1390 8 -11 15 -25 16 -30 0 -6 4 -2 9 9 10
24 4 77 -20 165 -16 63 -15 178 2 196 25 24 60 -92 74 -242 6 -66 8 -72 25
-64 43 24 56 -6 84 -195 18 -122 20 -219 4 -191 -9 14 -13 15 -19 6 -11 -18
-4 -88 16 -157 9 -32 17 -78 17 -103 -1 -39 0 -41 6 -15 l8 30 13 -28 c13 -27
14 -27 22 -8 8 23 -3 102 -26 175 -14 46 -14 97 0 166 5 23 7 24 18 8 7 -10
16 -15 19 -12 12 12 47 -221 47 -312 0 -30 -4 -53 -9 -50 -5 3 -11 0 -14 -7
-7 -18 1 -102 13 -145 6 -24 10 -577 11 -1617 1 -904 5 -1564 10 -1544 4 20 7
721 6 1557 -2 1347 0 1518 13 1496 8 -13 17 -24 21 -24 12 0 2 95 -16 155 -18
57 -22 166 -9 209 6 17 8 16 30 -9 13 -16 24 -29 24 -30 0 0 9 -48 19 -106 21
-113 37 -279 28 -279 -4 0 -13 12 -21 28 -15 27 -15 26 -16 -28 0 -30 9 -87
20 -125 20 -68 20 -104 22 -1510 l3 -1440 5 1425 c5 1359 6 1423 22 1390 16
-33 18 -33 19 -10 2 49 -3 86 -23 160 -30 108 -21 218 16 204 28 -11 63 -168
74 -327 7 -101 6 -106 -9 -86 -9 12 -19 18 -21 13 -9 -15 -2 -85 16 -150 14
-55 16 -213 16 -1583 0 -836 4 -1521 8 -1521 4 0 6 675 4 1501 -2 1069 0 1499
8 1494 6 -4 17 -21 24 -38 13 -31 13 -29 11 33 -1 36 -11 92 -21 125 -16 56
-21 157 -8 197 8 25 41 2 53 -37 15 -46 40 -209 47 -305 l7 -85 -21 25 -21 25
-1 -48 c0 -26 9 -80 20 -120 20 -70 20 -104 23 -1512 l2 -1440 5 1425 c5 1351
6 1423 22 1395 l17 -30 1 52 c0 29 -10 88 -22 130 -22 82 -24 127 -7 180 10
32 10 32 30 12 11 -11 24 -41 29 -67 6 -26 15 -70 20 -98 6 -28 14 -97 18
-154 7 -99 7 -101 -10 -80 -12 15 -18 18 -19 9 -4 -38 4 -109 17 -154 12 -42
14 -272 14 -1507 0 -969 4 -1458 10 -1458 7 0 9 480 8 1434 -3 1271 -1 1432
12 1410 36 -59 40 -1 9 119 -20 77 -26 178 -13 221 6 17 8 16 30 -9 22 -25 30
-54 53 -186 13 -76 25 -229 18 -229 -4 0 -13 12 -21 28 -15 27 -15 27 -16 -27
0 -30 9 -87 20 -127 20 -71 20 -88 16 -1731 -3 -912 -6 -1689 -8 -1728 -2 -55
2 -80 19 -115 l21 -45 -5 60 c-3 33 -7 825 -9 1760 -4 1521 -3 1698 10 1680 9
-11 16 -27 17 -35 0 -8 4 -4 8 10 8 29 0 91 -24 180 -16 61 -16 140 1 184 5
14 9 13 25 -6 11 -12 21 -31 24 -42 2 -12 11 -55 20 -96 14 -70 36 -280 29
-289 -2 -2 -9 8 -15 23 -7 15 -15 22 -19 16 -19 -31 21 -215 65 -291 l23 -41
-3 63 c-1 35 -12 96 -23 135 -16 56 -19 85 -13 133 4 33 10 64 14 67 10 10 45
-34 51 -64 19 -90 37 -217 42 -291 l6 -86 -21 30 -21 30 1 -55 c0 -30 9 -85
20 -122 19 -66 19 -106 15 -1725 -2 -912 -6 -1692 -8 -1733 -2 -61 1 -83 19
-120 l22 -45 -6 55 c-6 56 -16 3305 -11 3409 l3 56 16 -29 16 -28 2 53 c0 30
-8 85 -19 124 -29 103 -23 195 14 201 10 1 15 0 12 -3 -3 -3 1 -12 9 -20 8 -8
15 -22 16 -31 0 -9 2 -24 4 -32 18 -79 35 -204 35 -251 0 -33 4 -59 10 -59 6
0 10 13 10 29 0 30 21 54 28 33 2 -7 8 -10 13 -6 5 3 9 3 9 0 0 -3 7 -31 15
-63 17 -63 45 -266 45 -323 l0 -35 -19 24 -18 23 -1 -46 c-1 -25 7 -79 18
-119 20 -73 20 -92 17 -1733 -2 -913 -6 -1687 -10 -1721 -6 -53 -3 -72 18
-125 l24 -63 -5 65 c-8 78 -17 3476 -10 3469 3 -2 12 -18 20 -34 16 -30 16
-30 17 -5 2 57 -3 99 -23 165 -15 51 -19 86 -15 129 16 176 89 2 105 -251 4
-62 6 -113 5 -113 -1 0 -9 12 -17 28 -13 23 -15 24 -17 7 -4 -42 3 -102 17
-149 12 -42 14 -293 15 -1605 0 -856 4 -1576 9 -1601 4 -25 7 662 6 1527 0
864 3 1569 7 1566 5 -3 15 -19 23 -37 14 -31 14 -31 12 24 -1 30 -10 86 -20
124 -19 74 -24 191 -8 216 7 12 12 10 29 -9 12 -13 21 -26 21 -28 0 -2 7 -36
15 -76 15 -76 35 -232 35 -281 0 -29 0 -29 -20 -11 -21 19 -21 19 -16 -46 3
-35 12 -86 20 -113 14 -43 16 -219 18 -1510 l3 -1461 3 1445 c3 1430 3 1445
22 1410 18 -33 19 -34 21 -10 2 43 -2 73 -22 152 -10 42 -19 94 -19 116 0 53
18 102 35 96 17 -7 51 -150 60 -254 7 -73 8 -74 25 -52 17 20 20 21 34 6 9 -8
16 -16 16 -18 0 -1 9 -49 19 -107 11 -57 22 -147 26 -199 l7 -95 -21 30 -21
30 0 -55 c0 -30 9 -84 20 -119 20 -62 20 -91 20 -1247 l0 -1183 -23 -73 -23
-73 -48 0 c-38 0 -52 -5 -67 -24 -25 -31 -24 -41 5 -41 32 0 40 -14 20 -34
-20 -20 -43 -20 -72 0 -19 13 -22 13 -22 1 0 -8 -15 -38 -34 -65 -19 -28 -31
-53 -28 -56 3 -3 92 -6 198 -6 173 0 193 2 199 18 4 9 49 132 101 272 53 140
108 289 124 330 15 41 133 356 260 700 128 344 266 715 307 825 41 110 103
277 137 370 35 94 159 427 276 740 116 314 248 667 292 785 44 118 108 292
143 385 141 379 285 765 465 1250 44 121 94 254 110 295 15 41 133 356 260
700 273 734 260 701 270 695 12 -7 50 44 50 68 0 11 -10 36 -22 55 l-22 35 32
-6 c44 -9 82 -36 82 -58 0 -23 8 -24 31 -3 15 14 16 20 6 38 -9 16 -13 269
-17 1056 l-5 1035 -3 -1017 c-1 -680 -5 -1018 -12 -1018 -6 0 -18 4 -28 9 -9
5 -32 15 -49 21 l-33 12 -3 822 -2 821 -3 -821 -2 -822 -44 -11 c-25 -6 -50
-11 -55 -11 -8 0 -11 206 -11 672 0 369 -2 669 -5 667 -2 -3 -5 -306 -6 -674
l-2 -670 -41 -50 c-23 -27 -49 -63 -57 -80 -12 -27 -15 34 -19 550 l-5 580 -3
-603 -2 -602 -35 -108 c-20 -59 -44 -123 -55 -142 -19 -35 -19 -34 -20 544 0
319 -2 577 -5 574 -3 -3 -5 -271 -5 -596 l0 -591 -26 -83 c-14 -46 -40 -117
-57 -158 l-32 -75 -5 580 -5 580 -3 -601 -2 -600 -34 -100 c-18 -54 -47 -129
-65 -166 -17 -37 -31 -71 -31 -75 0 -17 -53 -170 -78 -228 l-27 -60 -5 575 -5
575 -3 -589 c-2 -666 1 -634 -87 -841 -24 -55 -48 -120 -55 -145 -6 -25 -26
-79 -43 -120 l-32 -75 -5 575 -5 575 -3 -595 -2 -595 -40 -118 c-73 -218 -69
-244 -70 408 -1 333 -5 571 -10 560 -5 -11 -9 -286 -9 -611 l-1 -590 -34 -100
c-76 -223 -70 -254 -76 396 l-5 575 -3 -589 c-2 -664 0 -640 -84 -831 -22 -49
-49 -121 -60 -160 -11 -38 -37 -110 -57 -160 l-36 -90 -5 575 -5 575 -3 -591
-2 -590 -34 -105 c-19 -57 -45 -126 -58 -154 l-23 -50 -5 570 -5 570 -3 -591
c-2 -659 1 -620 -76 -804 l-31 -75 -5 575 -5 575 -3 -594 -2 -593 -34 -102
c-19 -55 -45 -123 -58 -151 l-23 -50 -5 570 -5 570 -3 -591 c-2 -659 1 -622
-75 -804 l-32 -75 -5 570 -5 570 -3 -587 -2 -588 -30 -94 c-17 -52 -43 -121
-58 -153 l-27 -58 -5 565 -5 565 -3 -586 c-2 -653 1 -617 -75 -799 l-32 -75
-5 570 -5 570 -3 -587 -2 -588 -31 -97 c-17 -54 -43 -123 -58 -153 l-26 -55
-5 565 -5 565 -3 -585 c-2 -649 1 -613 -73 -800 l-34 -85 -5 605 -5 605 -3
-616 -2 -616 -28 -94 c-16 -52 -42 -123 -58 -159 l-29 -65 -5 750 -5 750 -3
-770 -2 -771 -29 -89 c-16 -50 -40 -115 -54 -145 l-25 -55 -1 923 c-1 607 -4
922 -11 922 -7 0 -10 -324 -10 -951 0 -928 -1 -954 -20 -1020 -12 -38 -34 -97
-50 -131 l-29 -63 0 1141 c-1 1134 -1 1142 19 1147 26 7 25 27 -1 124 -15 55
-20 94 -16 134 7 76 13 84 40 55 18 -19 26 -50 41 -152 22 -155 25 -167 37
-136 4 12 24 30 44 39 19 9 35 20 35 23 0 7 -27 80 -283 760 -178 473 -404
1073 -745 1980 -105 278 -242 642 -305 810 -332 881 -827 2197 -1165 3097
-110 292 -204 538 -208 546 -7 12 -17 4 -46 -36z m5386 -2431 c-9 -23 -86 -58
-99 -45 -15 16 40 59 75 59 21 0 28 -4 24 -14z m-129 -112 c-18 -123 -61 -244
-85 -244 -23 0 4 123 55 248 23 57 39 55 30 -4z m-131 -366 c-27 -149 -72
-250 -91 -203 -10 27 89 316 104 302 2 -3 -3 -47 -13 -99z m-118 -297 c-12
-108 -63 -261 -87 -261 -4 0 -9 9 -12 19 -7 26 85 301 100 301 3 0 3 -27 -1
-59z m-131 -368 c-25 -140 -64 -241 -86 -227 -16 10 -10 48 25 150 35 103 67
177 74 170 2 -2 -4 -44 -13 -93z m-130 -365 c-19 -94 -50 -181 -70 -198 -41
-34 -20 70 48 245 38 96 47 76 22 -47z m-112 -250 c-8 -68 -42 -207 -59 -244
-9 -19 -24 -34 -33 -34 -13 0 -21 -23 -38 -114 -21 -107 -48 -186 -64 -186
-29 0 -10 98 44 225 16 39 46 120 67 180 35 104 79 215 85 215 2 0 1 -19 -2
-42z m-234 -648 c-18 -130 -63 -260 -89 -260 -19 0 -10 56 24 156 31 91 67
177 72 171 1 -1 -2 -31 -7 -67z m-123 -327 c-9 -81 -43 -204 -68 -243 -18 -30
-21 -32 -30 -16 -7 12 -3 38 12 89 26 85 81 227 88 227 3 0 2 -26 -2 -57z
m-136 -397 c-20 -104 -41 -166 -66 -194 l-23 -27 -1 36 c0 34 36 152 76 249
16 39 19 42 22 21 2 -14 -1 -52 -8 -85z m-115 -278 c-15 -115 -65 -268 -87
-268 -21 0 -18 36 7 118 27 87 74 202 82 202 3 0 2 -24 -2 -52z m-127 -340
c-18 -131 -64 -268 -90 -268 -17 0 -7 69 21 151 30 88 68 179 74 179 2 0 0
-28 -5 -62z m-138 -409 c-21 -103 -53 -189 -71 -189 -20 0 -20 33 1 102 30
100 84 226 88 207 1 -9 -7 -63 -18 -120z m-125 -341 c-18 -89 -57 -188 -74
-188 -26 0 -2 109 52 240 38 91 46 71 22 -52z m-121 -309 c-24 -144 -71 -245
-90 -195 -10 26 88 308 102 294 2 -3 -3 -47 -12 -99z m-120 -309 c-25 -144
-59 -240 -85 -240 -16 0 -9 53 17 135 25 79 74 198 80 193 1 -2 -4 -41 -12
-88z m-129 -358 c-23 -143 -73 -255 -92 -207 -9 26 89 316 103 303 2 -3 -3
-45 -11 -96z m-119 -301 c-17 -150 -96 -337 -96 -228 0 44 83 287 97 287 3 0
3 -27 -1 -59z m-126 -347 c-13 -84 -46 -199 -67 -230 -17 -26 -33 -23 -33 6 0
43 95 308 107 296 2 -2 -1 -34 -7 -72z m-124 -321 c-13 -115 -62 -263 -87
-263 -17 0 -17 36 2 97 28 90 79 223 86 223 3 0 3 -26 -1 -57z m-126 -349
c-18 -108 -40 -186 -62 -222 -21 -33 -38 -35 -38 -2 0 44 95 308 107 296 2 -2
-1 -35 -7 -72z m-135 -387 c-16 -89 -48 -177 -65 -177 -19 0 -17 35 5 112 28
94 67 186 73 169 2 -7 -4 -53 -13 -104z m-105 -182 c0 -9 -11 -20 -25 -27 -19
-9 -29 -8 -50 6 -35 23 -23 36 31 36 33 0 44 -4 44 -15z"/>
<path d="M10337 9978 c-9 -7 -28 -28 -42 -47 -25 -35 -25 -35 -25 -258 0 -123
-2 -223 -4 -223 -3 0 -16 4 -30 10 l-26 10 0 187 0 187 -30 -29 c-30 -28 -30
-30 -30 -137 l0 -108 -35 0 -35 0 0 105 c0 63 -4 105 -10 105 -6 0 -10 -42
-10 -105 l0 -105 -55 0 -54 0 -4 108 -3 107 -2 -107 -2 -108 -55 0 -55 0 0
105 c0 63 -4 105 -10 105 -6 0 -10 -43 -10 -109 l0 -108 -31 -7 c-81 -16 -78
-19 -82 112 l-3 117 -2 -122 -2 -121 -31 -11 c-18 -6 -43 -11 -55 -11 -24 0
-24 0 -24 130 0 80 -4 130 -10 130 -6 0 -10 -52 -10 -135 l0 -136 -42 -19
c-24 -11 -49 -20 -55 -20 -10 0 -14 39 -15 158 l-2 157 -6 -168 c-3 -94 -9
-171 -15 -175 -5 -4 -32 -22 -59 -39 -27 -18 -74 -63 -105 -100 l-56 -67 -5
274 -5 275 -3 -277 c-2 -269 -3 -280 -27 -340 -13 -35 -37 -106 -54 -158 l-29
-95 -3 435 -3 435 -7 -550 c-4 -302 -12 -638 -17 -745 -7 -129 -11 -1308 -11
-3460 -1 -3077 3 -3561 27 -3795 4 -38 5 -281 2 -540 l-5 -470 -105 0 -105 0
-2 4420 c-2 2431 -4 4582 -5 4780 -2 198 -5 -1791 -8 -4420 l-5 -4780 -50 0
-50 0 -5 4780 -5 4780 -5 -4780 -5 -4780 -50 0 -50 0 -7 45 c-4 25 -7 2039 -6
4475 0 2437 -1 4567 -3 4735 -2 168 -6 -1846 -9 -4475 l-5 -4780 -50 0 -50 0
-5 4780 -5 4780 -5 -4780 -5 -4780 -44 -3 c-24 -2 -48 1 -52 5 -5 5 -9 2142
-9 4781 0 3120 -4 4772 -10 4772 -7 0 -11 -1656 -12 -4777 l-3 -4778 -50 0
-50 0 -5 4780 -5 4780 -5 -4780 -5 -4780 -50 0 -50 0 -3 4778 c-1 3170 -5
4777 -12 4777 -7 0 -11 -1607 -12 -4777 l-3 -4778 -50 0 -50 0 -5 365 -5 365
-5 -365 -5 -365 -55 0 -55 0 -5 240 -5 240 -5 -240 -5 -240 -50 0 -50 0 -5
185 c-5 159 -6 169 -9 75 -5 -184 -10 -248 -19 -257 -5 -5 -29 -8 -53 -6 l-44
3 -5 150 -6 150 -4 -150 -5 -150 -50 0 -50 0 -5 130 -6 130 -4 -130 -5 -130
-55 0 -55 0 -5 115 -6 115 -4 -115 -5 -115 -50 0 -50 0 -6 105 -5 105 -2 -102
c-2 -99 -3 -103 -26 -109 -13 -3 -38 -4 -57 -2 l-34 3 -5 110 -6 110 -4 -110
-5 -110 -67 0 c-60 0 -71 -3 -95 -27 -15 -15 -24 -31 -20 -34 4 -4 45 -7 92
-6 68 1 85 -2 85 -13 0 -8 -10 -20 -22 -26 -17 -9 -28 -8 -55 6 -31 17 -34 17
-51 2 -25 -22 -41 -21 -68 4 l-22 21 -7 -21 c-3 -11 -33 -42 -65 -68 -33 -26
-60 -51 -60 -55 0 -5 817 -8 1815 -8 l1815 0 0 328 -1 327 -44 -48 -45 -49 0
-224 c0 -152 -3 -224 -11 -224 -6 0 -19 5 -30 10 -18 10 -19 23 -19 198 l-1
187 -29 -33 c-29 -32 -30 -34 -30 -143 l0 -110 -32 3 -33 3 -5 110 c-6 129
-19 121 -22 -15 l-3 -95 -50 0 -50 0 -5 110 -6 110 -4 -110 -5 -110 -50 0 -50
0 -3 108 c-1 59 -7 107 -12 107 -5 0 -11 -48 -12 -107 l-3 -108 -50 0 -50 0
-5 120 -6 120 -4 -120 -5 -120 -50 0 -50 0 -3 133 c-1 74 -7 132 -12 132 -5 0
-11 -58 -12 -132 l-3 -133 -50 0 -50 0 -5 160 -6 160 -4 -160 -5 -160 -50 0
-50 0 -3 38 c-2 20 -8 37 -14 37 -7 0 -8 -13 -5 -35 5 -30 3 -36 -17 -41 -13
-3 -38 -4 -57 -2 l-34 3 -3 260 c-1 143 2 280 7 305 6 29 6 62 -1 96 -11 56
-3 164 12 164 5 0 16 -12 24 -28 18 -35 66 -178 66 -197 0 -29 17 -14 30 26 8
22 17 42 20 44 4 2 -4 35 -16 73 -27 79 -48 192 -66 354 -10 90 -13 843 -13
3693 0 3375 1 3588 18 3722 20 162 46 272 78 335 32 63 143 168 214 202 127
62 172 69 493 74 l292 4 0 319 c0 175 -1 319 -3 319 -2 0 -11 -6 -20 -12z
m-407 -498 c-12 -23 -43 -30 -71 -16 -50 25 -20 47 53 37 23 -3 26 -6 18 -21z
m250 0 c-12 -23 -43 -30 -71 -16 -50 25 -20 47 53 37 23 -3 26 -6 18 -21z
m-120 12 c0 -35 -83 -45 -100 -12 -10 19 -8 20 45 20 30 0 55 -4 55 -8z m-250
-12 c0 -19 -47 -41 -74 -34 -30 7 -35 30 -8 37 32 9 82 7 82 -3z m-127 -25
c-8 -23 -56 -45 -82 -38 -30 8 -21 26 20 40 49 17 70 16 62 -2z m-123 -34 c0
-18 -54 -61 -76 -61 -39 0 -36 18 8 44 44 27 68 33 68 17z m-130 -76 c0 -22
-60 -85 -81 -85 -29 0 -23 20 21 62 43 40 60 47 60 23z m-150 -190 c-17 -43
-38 -92 -47 -109 l-16 -31 -8 28 c-8 30 0 66 24 114 22 42 70 98 74 86 2 -6
-10 -45 -27 -88z m-103 -250 c-11 -123 -18 -7336 -7 -7550 4 -82 11 -204 14
-270 l6 -120 -19 45 c-21 52 -37 138 -53 295 -15 154 -24 6772 -9 7145 11 270
29 427 57 513 9 27 17 47 18 45 2 -2 -1 -48 -7 -103z m-16 -8035 l29 -95 -2
-275 -3 -275 -29 -3 c-15 -2 -39 -1 -52 2 l-24 6 0 448 1 447 25 -80 c14 -44
38 -123 55 -175z m-1953 -727 c-5 -29 -52 -39 -83 -19 -36 23 -23 36 36 36 42
0 50 -3 47 -17z m126 8 c11 -18 -32 -43 -62 -36 -29 6 -47 27 -35 39 10 9 91
7 97 -3z m126 -6 c0 -24 -45 -40 -75 -27 -44 20 -31 42 25 42 38 0 50 -4 50
-15z m123 8 c10 -9 -23 -43 -42 -43 -23 0 -63 29 -56 41 7 10 88 12 98 2z
m127 -8 c0 -24 -45 -40 -75 -27 -44 20 -31 42 25 42 38 0 50 -4 50 -15z m123
8 c10 -9 -23 -43 -42 -43 -23 0 -63 29 -56 41 7 10 88 12 98 2z m127 -8 c0
-24 -45 -40 -75 -27 -44 20 -31 42 25 42 38 0 50 -4 50 -15z m123 8 c10 -9
-23 -43 -42 -43 -23 0 -63 29 -56 41 7 10 88 12 98 2z m127 -8 c0 -24 -45 -40
-75 -27 -44 20 -31 42 25 42 38 0 50 -4 50 -15z m125 6 c7 -13 -22 -41 -43
-41 -24 0 -64 29 -57 41 8 12 92 12 100 0z m125 -6 c0 -24 -45 -40 -75 -27
-44 20 -31 42 25 42 38 0 50 -4 50 -15z m125 6 c7 -13 -22 -41 -43 -41 -24 0
-64 29 -57 41 8 12 92 12 100 0z m130 -1 c3 -5 -6 -17 -20 -26 -31 -20 -78
-10 -83 19 -3 14 5 17 47 17 27 0 52 -4 56 -10z m123 -7 c2 -7 -8 -18 -22 -24
-31 -15 -76 1 -76 26 0 13 10 15 47 13 26 -2 48 -9 51 -15z m112 2 c0 -23 -39
-39 -66 -26 -42 19 -30 41 21 41 33 0 45 -4 45 -15z m113 8 c10 -9 -23 -43
-42 -43 -23 0 -63 29 -56 41 7 10 88 12 98 2z m115 -9 c-5 -28 -33 -39 -62
-26 -44 20 -33 42 20 42 37 0 45 -3 42 -16z m127 7 c7 -12 -22 -41 -41 -41
-24 0 -54 19 -54 35 0 11 12 15 44 15 25 0 47 -4 51 -9z m130 -1 c3 -5 -6 -17
-20 -26 -31 -20 -78 -10 -83 19 -3 14 5 17 47 17 27 0 52 -4 56 -10z m123 -7
c-5 -29 -52 -39 -83 -19 -36 23 -23 36 36 36 42 0 50 -3 47 -17z m127 8 c7
-12 -33 -41 -55 -41 -24 0 -54 25 -46 38 9 14 92 16 101 3z m123 -8 c-5 -29
-52 -39 -83 -19 -36 23 -23 36 36 36 42 0 50 -3 47 -17z m127 7 c3 -5 -5 -16
-19 -25 -35 -23 -99 -4 -81 25 8 13 92 13 100 0z m125 -5 c0 -24 -45 -40 -75
-27 -44 20 -31 42 25 42 38 0 50 -4 50 -15z m125 6 c3 -5 -2 -17 -12 -26 -26
-27 -105 -2 -87 27 7 11 92 10 99 -1z"/>
<path d="M322 9678 c-2 -115 -2 -114 -55 -110 -24 2 -77 -25 -78 -41 -1 -6 -2
-21 -3 -31 -1 -12 -21 -30 -58 -50 -31 -17 -69 -46 -83 -63 l-27 -33 133 0
c255 0 483 -36 598 -94 73 -36 150 -98 201 -161 32 -39 50 -53 63 -49 12 4 17
0 18 -13 3 -49 10 -93 23 -138 l14 -50 3 55 c6 154 -8 277 -25 222 -13 -40
-31 -23 -59 56 -27 76 -34 122 -19 122 17 0 54 -34 78 -71 28 -44 54 -52 54
-15 0 27 -37 96 -51 96 -5 0 -27 16 -49 36 l-40 36 -2 202 -3 201 -2 -192 c-3
-136 -7 -193 -15 -193 -6 0 -33 14 -60 31 l-48 31 -2 162 -2 161 -3 -159 -4
-158 -27 6 c-15 4 -39 12 -54 18 l-28 10 0 139 c0 86 -4 139 -10 139 -6 0 -10
-52 -10 -135 0 -150 3 -146 -71 -123 l-39 11 -2 126 -2 126 -3 -122 c-4 -137
-1 -133 -82 -117 l-31 7 0 113 c0 69 -4 114 -10 114 -6 0 -10 -44 -10 -111 l0
-110 -52 3 -53 3 -6 110 -5 110 -2 -107z m-9 -194 c-10 -26 -41 -36 -70 -22
-37 18 -40 36 -6 40 49 5 82 -3 76 -18z m105 10 c42 -12 20 -44 -31 -44 -21 0
-57 26 -57 42 0 9 54 11 88 2z m149 -27 c10 -11 -18 -37 -41 -37 -25 0 -66 26
-66 42 0 11 95 6 107 -5z m98 -19 c32 -14 32 -36 1 -44 -26 -6 -70 17 -80 42
-7 18 41 19 79 2z m123 -38 c17 -11 32 -24 32 -29 0 -17 -29 -33 -49 -26 -21
6 -61 50 -61 66 0 16 44 9 78 -11z m85 -41 c64 -33 93 -99 44 -99 -29 0 -65
36 -77 78 -9 35 -3 39 33 21z m152 -299 c-3 -5 -12 -10 -18 -10 -7 0 -6 4 3
10 19 12 23 12 15 0z"/>
<path d="M1295 9280 c0 -278 1 -391 2 -252 2 138 2 366 0 505 -1 138 -2 25 -2
-253z"/>
<path d="M1540 5005 l-5 -4780 -50 0 -50 0 -5 165 -6 165 -2 -162 c-2 -162 -2
-163 -26 -169 -13 -3 -38 -4 -57 -2 l-34 3 -5 440 -5 440 -5 -440 -5 -440 -45
0 -45 0 -3 48 c-4 61 -20 61 -24 0 l-3 -48 -97 -2 c-61 -1 -100 2 -104 9 -4 6
-7 83 -7 172 l0 161 -9 -160 c-5 -88 -11 -166 -13 -173 -3 -9 -20 -12 -52 -10
l-48 3 -5 140 -6 140 -4 -140 -5 -140 -50 0 -50 0 -3 118 c-1 64 -7 117 -12
117 -5 0 -11 -53 -12 -117 l-3 -118 -50 0 -50 0 -5 110 -6 110 -4 -110 -5
-110 -50 0 -50 0 -3 108 c-1 59 -7 107 -12 107 -5 0 -11 -48 -12 -107 l-3
-108 -50 0 -50 0 -5 110 -6 110 -4 -110 -5 -110 -47 -5 c-58 -7 -90 -33 -82
-66 5 -21 0 -26 -39 -43 -45 -19 -127 -85 -127 -102 0 -5 645 -9 1515 -9
l1515 0 0 330 0 330 -52 -57 c-28 -32 -58 -59 -65 -61 -13 -4 -14 -18 -17
-285 -1 -105 -3 -120 -20 -133 -23 -17 -41 -18 -67 -4 -34 19 -23 40 21 40
l40 0 0 160 c0 88 -4 160 -8 160 -5 0 -18 -10 -30 -23 -20 -21 -22 -34 -22
-131 0 -69 -4 -105 -10 -101 -5 3 -10 32 -10 64 0 32 -3 80 -7 107 -7 43 -9
35 -13 -61 l-5 -110 -50 0 -50 0 -5 110 -6 110 -4 -110 -5 -110 -50 0 -50 0
-3 108 c-1 59 -7 107 -12 107 -5 0 -11 -48 -12 -107 l-3 -108 -50 0 -50 0 -5
115 -6 115 -4 -115 -5 -115 -50 0 -50 0 -3 127 c-1 71 -7 128 -12 128 -5 0
-11 -57 -12 -128 l-3 -127 -50 0 -50 0 -5 150 -6 150 -4 -150 -5 -150 -55 0
-55 0 -5 185 -5 185 -5 -185 -5 -185 -50 0 -50 0 -5 240 -5 240 -5 -240 -5
-240 -55 0 -55 0 -2 370 -2 370 23 -54 c21 -48 24 -51 30 -30 7 23 8 23 24
-11 8 -19 16 -38 16 -42 1 -3 4 -10 9 -14 4 -4 7 -24 7 -45 0 -21 4 -41 10
-44 14 -9 22 37 12 66 -9 23 -8 47 4 106 3 15 11 21 26 20 25 -2 78 -79 78
-115 0 -36 17 -17 24 28 5 30 1 50 -13 78 -54 105 -87 333 -101 692 -15 373
-13 5773 2 5768 6 -2 21 5 33 16 27 26 18 58 -27 99 -37 34 -25 49 29 36 45
-10 55 -24 49 -71 -2 -21 0 -41 5 -44 9 -5 11 1 13 46 1 18 6 24 19 22 13 -2
17 4 17 24 0 15 -8 36 -17 47 -17 18 -18 90 -23 1131 l-5 1111 -3 -1108 c-2
-1050 -3 -1108 -19 -1103 -10 3 -35 8 -55 12 l-38 6 -3 1097 -2 1096 -3 -1097
-2 -1096 -42 -15 c-24 -8 -51 -18 -60 -22 -17 -7 -18 52 -21 1111 l-2 1119 -3
-1125 c-2 -1091 -3 -1126 -21 -1157 -11 -17 -25 -58 -31 -90 -8 -42 -10 -850
-7 -3008 4 -3111 3 -3046 47 -3328 7 -47 10 -209 8 -462 l-3 -390 -50 0 -50 0
-5 4780 -5 4780 -5 -4780 -5 -4780 -55 0 -55 0 -5 4780 -5 4780 -5 -4780z
m370 2499 c0 -3 -14 -22 -30 -43 l-30 -37 0 -2825 c1 -1553 3 -2871 5 -2929 9
-233 18 -354 40 -570 19 -185 25 -270 20 -270 -3 0 -13 17 -24 38 -24 46 -57
203 -71 337 -8 70 -11 1019 -10 3145 0 1675 0 3057 0 3071 0 33 50 89 79 89
12 0 21 -3 21 -6z m-1600 -7359 c0 -24 -45 -40 -75 -27 -44 20 -31 42 25 42
38 0 50 -4 50 -15z m128 -2 c-5 -29 -52 -39 -83 -19 -36 23 -23 36 36 36 42 0
50 -3 47 -17z m127 7 c3 -5 -6 -17 -20 -26 -31 -20 -78 -10 -83 19 -3 14 5 17
47 17 27 0 52 -4 56 -10z m123 -7 c-5 -29 -52 -39 -83 -19 -36 23 -23 36 36
36 42 0 50 -3 47 -17z m127 8 c7 -12 -33 -41 -55 -41 -24 0 -54 25 -46 38 9
14 92 16 101 3z m125 -6 c0 -24 -45 -40 -75 -27 -44 20 -31 42 25 42 38 0 50
-4 50 -15z m225 5 c7 -12 -23 -40 -43 -40 -10 0 -28 7 -40 16 -21 15 -25 15
-41 0 -10 -9 -24 -16 -32 -16 -23 0 -53 25 -45 38 8 13 193 15 201 2z m119 1
c3 -4 -4 -16 -15 -26 -15 -15 -25 -17 -47 -9 -15 5 -28 17 -30 27 -3 14 4 17
42 17 25 0 47 -4 50 -9z m126 -6 c0 -24 -45 -40 -75 -27 -44 20 -31 42 25 42
38 0 50 -4 50 -15z m124 6 c11 -18 -32 -43 -62 -36 -29 6 -47 27 -35 39 10 9
91 7 97 -3z m126 -6 c0 -24 -45 -40 -75 -27 -44 20 -31 42 25 42 38 0 50 -4
50 -15z m124 6 c11 -18 -32 -43 -62 -36 -29 6 -47 27 -35 39 10 9 91 7 97 -3z
m126 -6 c0 -24 -45 -40 -75 -27 -44 20 -31 42 25 42 38 0 50 -4 50 -15z m125
6 c3 -5 -2 -17 -12 -26 -26 -27 -105 -2 -87 27 7 11 92 10 99 -1z m125 -6 c0
-24 -45 -40 -75 -27 -44 20 -31 42 25 42 38 0 50 -4 50 -15z m126 3 c4 -6 -2
-17 -12 -25 -31 -23 -105 1 -88 29 8 12 92 9 100 -4z m124 -3 c0 -24 -45 -40
-75 -27 -44 20 -31 42 25 42 38 0 50 -4 50 -15z m125 4 c8 -12 -23 -38 -45
-39 -22 0 -62 29 -55 41 8 13 92 11 100 -2z m125 -4 c0 -24 -45 -40 -75 -27
-44 20 -31 42 25 42 38 0 50 -4 50 -15z m125 6 c7 -13 -22 -41 -43 -41 -24 0
-64 29 -57 41 8 12 92 12 100 0z"/>
<path d="M2169 8608 c-1 -645 -2 -1220 -3 -1278 0 -58 2 -130 5 -160 3 -30 6
545 7 1278 1 732 0 1332 -3 1332 -3 0 -6 -528 -6 -1172z"/>
<path d="M2290 8410 c0 -907 3 -1370 10 -1370 7 0 10 463 10 1370 0 907 -3
1370 -10 1370 -7 0 -10 -463 -10 -1370z"/>
<path d="M1171 9378 c-1 -121 -5 -209 -11 -213 -11 -7 -3 -78 15 -120 10 -25
12 19 8 245 -3 151 -6 280 -8 285 -2 6 -4 -83 -4 -197z"/>
<path d="M1425 7915 c0 -352 1 -495 2 -317 2 178 2 466 0 640 -1 174 -2 29 -2
-323z"/>
<path d="M3125 7763 c4 -74 26 -158 54 -204 l18 -30 5 26 c10 48 -39 242 -66
265 -13 10 -14 1 -11 -57z"/>
<path d="M7972 7400 c0 -19 2 -27 5 -17 2 9 2 25 0 35 -3 9 -5 1 -5 -18z"/>
<path d="M2036 7330 c-13 -88 -9 -163 13 -215 l21 -50 -6 129 c-4 71 -10 141
-14 155 -6 23 -7 21 -14 -19z"/>
<path d="M1422 7250 c0 -14 2 -19 5 -12 2 6 2 18 0 25 -3 6 -5 1 -5 -13z"/>
<path d="M3272 5803 c-1 -766 2 -1393 6 -1393 6 0 6 1396 -1 2395 -1 215 -3
-237 -5 -1002z"/>
<path d="M2155 6943 c-6 -68 -4 -97 9 -139 9 -29 20 -55 24 -58 4 -2 4 46 0
107 -3 62 -7 127 -7 145 -2 65 -19 29 -26 -55z"/>
<path d="M2291 6920 c0 -61 4 -108 8 -106 11 7 11 205 0 211 -4 3 -8 -44 -8
-105z"/>
<path d="M2289 6675 c-1 -16 -3 -41 -5 -55 -8 -71 -5 -121 10 -168 10 -29 20
-52 23 -52 8 0 -9 274 -18 290 -6 11 -9 7 -10 -15z"/>
<path d="M2423 6515 c0 -27 2 -38 4 -22 2 15 2 37 0 50 -2 12 -4 0 -4 -28z"/>
<path d="M2418 6354 c-4 -7 -10 -49 -14 -95 -5 -75 -3 -91 19 -149 l25 -65 -5
90 c-9 151 -18 231 -25 219z"/>
<path d="M2541 6238 c0 -71 4 -115 8 -103 11 28 11 214 0 221 -5 3 -9 -47 -8
-118z"/>
<path d="M2533 5959 c-10 -88 -4 -144 21 -200 14 -32 15 -25 9 106 -7 176 -17
206 -30 94z"/>
<path d="M2664 5978 c2 -29 5 -59 5 -65 1 -7 6 -13 12 -13 5 0 8 4 5 8 -3 5
-6 34 -7 65 -1 31 -6 57 -11 57 -5 0 -7 -24 -4 -52z"/>
<path d="M2672 5850 c0 -14 2 -19 5 -12 2 6 2 18 0 25 -3 6 -5 1 -5 -13z"/>
<path d="M2791 5581 c-1 -63 2 -112 5 -108 11 11 16 172 5 197 -7 19 -10 -2
-10 -89z"/>
<path d="M2664 5663 c-1 -10 -4 -49 -8 -86 -6 -56 -3 -80 14 -133 12 -36 24
-64 26 -61 2 2 -1 59 -6 128 -5 68 -10 134 -10 147 0 26 -15 30 -16 5z"/>
<path d="M2786 5294 c-5 -38 -9 -80 -10 -94 -2 -25 32 -140 41 -140 7 0 -8
261 -17 284 -4 13 -9 -4 -14 -50z"/>
<path d="M3041 4965 c0 -27 4 -59 9 -70 6 -15 9 -7 9 30 0 28 -4 59 -9 70 -6
15 -9 7 -9 -30z"/>
<path d="M3152 4690 c0 -14 2 -19 5 -12 2 6 2 18 0 25 -3 6 -5 1 -5 -13z"/>
<path d="M3036 4635 c-11 -101 -10 -138 8 -193 10 -28 20 -52 23 -52 7 0 -7
228 -16 271 -7 32 -8 30 -15 -26z"/>
<path d="M3150 4645 c0 -8 2 -15 4 -15 2 0 6 7 10 15 3 8 1 15 -4 15 -6 0 -10
-7 -10 -15z"/>
<path d="M4348 4558 c-14 -41 27 -215 67 -282 l23 -39 1 49 c0 87 -76 316 -91
272z"/>
<path d="M3271 4350 c0 -30 4 -62 9 -70 12 -19 12 76 0 105 -6 14 -9 5 -9 -35z"/>
<path d="M3149 4335 c-3 -6 -7 -42 -8 -80 -2 -53 3 -82 19 -120 l21 -50 -6
100 c-6 102 -17 167 -26 150z"/>
<path d="M3271 4250 c0 -8 4 -22 9 -30 12 -18 12 -2 0 25 -6 13 -9 15 -9 5z"/>
<path d="M3265 4015 c-12 -90 -10 -136 9 -193 10 -29 20 -52 23 -52 7 0 -8
247 -17 279 -6 21 -9 15 -15 -34z"/>
<path d="M3375 3711 c-8 -118 -2 -172 21 -211 14 -23 14 -16 9 75 -7 128 -16
239 -20 243 -1 2 -6 -46 -10 -107z"/>
<path d="M3507 3773 c-10 -9 -7 -84 3 -108 l9 -20 2 20 c2 26 -1 108 -5 112
-1 2 -6 0 -9 -4z"/>
<path d="M3513 3570 c0 -25 2 -35 4 -22 2 12 2 32 0 45 -2 12 -4 2 -4 -23z"/>
<path d="M3511 3435 c-2 -5 -4 -19 -7 -30 -15 -70 -14 -151 2 -201 9 -30 20
-54 24 -54 3 0 5 35 2 78 -4 86 -18 222 -21 207z"/>
<path d="M3631 3250 c0 -37 2 -41 9 -22 6 13 6 31 0 45 -7 18 -9 14 -9 -23z"/>
<path d="M4838 3258 c-14 -41 24 -208 63 -271 l19 -32 0 48 c0 92 -67 299 -82
255z"/>
<path d="M3626 3060 c-4 -47 -9 -99 -10 -116 -2 -18 8 -58 21 -90 l23 -59 -6
135 c-4 74 -9 153 -13 175 -6 36 -8 31 -15 -45z"/>
<path d="M3756 3101 c-4 -5 -4 -36 -1 -67 9 -96 20 -79 16 26 -2 48 -5 57 -15
41z"/>
<path d="M3762 2920 c0 -14 2 -19 5 -12 2 6 2 18 0 25 -3 6 -5 1 -5 -13z"/>
<path d="M3753 2715 c-16 -72 -10 -162 14 -215 l21 -45 -5 90 c-3 49 -8 119
-12 155 l-7 65 -11 -50z"/>
<path d="M3880 2703 c0 -34 5 -65 10 -68 13 -8 13 95 0 115 -7 11 -10 -3 -10
-47z"/>
<path d="M3881 2603 c-1 -12 4 -25 9 -28 12 -7 12 2 0 30 -8 19 -9 19 -9 -2z"/>
<path d="M3875 2371 c-11 -109 -9 -141 14 -196 l21 -50 -6 134 c-8 173 -18
212 -29 112z"/>
<path d="M4135 2110 c-3 -5 -1 -10 4 -10 6 0 11 5 11 10 0 6 -2 10 -4 10 -3 0
-8 -4 -11 -10z"/>
<path d="M4131 2040 c0 -30 4 -62 9 -70 12 -19 12 76 0 105 -6 14 -9 5 -9 -35z"/>
<path d="M4131 1760 c-1 -3 -4 -50 -7 -105 -5 -88 -3 -106 15 -150 l21 -50 -5
120 c-5 98 -19 206 -24 185z"/>
<path d="M7972 1585 c0 -16 2 -22 5 -12 2 9 2 23 0 30 -3 6 -5 -1 -5 -18z"/>
<path d="M7973 1500 c0 -25 2 -35 4 -22 2 12 2 32 0 45 -2 12 -4 2 -4 -23z"/>
<path d="M4385 1440 c-3 -5 -1 -10 4 -10 6 0 11 5 11 10 0 6 -2 10 -4 10 -3 0
-8 -4 -11 -10z"/>
<path d="M4381 1370 c0 -30 4 -62 9 -70 12 -19 12 76 0 105 -6 14 -9 5 -9 -35z"/>
<path d="M4377 1025 c-10 -107 -8 -146 14 -195 l19 -45 -5 120 c-3 66 -9 136
-14 155 -7 32 -8 28 -14 -35z"/>
<path d="M9436 793 c9 -38 14 -42 14 -10 0 14 -5 29 -10 32 -7 4 -8 -3 -4 -22z"/>
<path d="M1172 730 c0 -19 2 -27 5 -17 2 9 2 25 0 35 -3 9 -5 1 -5 -18z"/>
<path d="M1174 465 c0 -49 1 -71 3 -48 2 23 2 64 0 90 -2 26 -3 8 -3 -42z"/>
<path d="M4638 424 c-4 -6 -11 -54 -14 -106 -5 -76 -3 -105 10 -146 33 -98 35
-79 18 168 -4 52 -10 90 -14 84z"/>
<path d="M4755 373 c1 -27 3 -86 4 -132 0 -46 3 -82 5 -80 4 5 10 177 8 227
-1 17 -6 32 -10 32 -5 0 -8 -21 -7 -47z"/>
</g>
</svg>
